Coordinates
version=1
nRows=27
nColumns=38
inDegrees=no

Units are S.I. units (second, meters, Newtons, ...)
If the header above contains a line with 'inDegrees', this indicates whether rotational values are in degrees (yes) or radians (no).

endheader
time	pelvis_tilt	pelvis_list	pelvis_rotation	pelvis_tx	pelvis_ty	pelvis_tz	hip_flexion_r	hip_adduction_r	hip_rotation_r	knee_angle_r	ankle_angle_r	subtalar_angle_r	mtp_angle_r	hip_flexion_l	hip_adduction_l	hip_rotation_l	knee_angle_l	ankle_angle_l	subtalar_angle_l	mtp_angle_l	lumbar_extension	lumbar_bending	lumbar_rotation	arm_flex_r	arm_add_r	arm_rot_r	elbow_flex_r	pro_sup_r	wrist_flex_r	wrist_dev_r	arm_flex_l	arm_add_l	arm_rot_l	elbow_flex_l	pro_sup_l	wrist_flex_l	wrist_dev_l
9.27	-2.80051	1.22536	-1.31833	0.619165	1.55359	0.957806	-0.176507	0.00454583	-0.131539	0.285434	-0.359383	0	0	-0.185806	-0.210591	-0.017129	0.759719	-0.227826	0	0	-0.467783	0.142884	0.184264	0.571639	-0.517468	-0.1412	1.15246	0.967057	0	0	0.245448	-0.554948	0.143738	1.24954	1.5708	0	0
9.28	-2.80293	1.22984	-1.31462	0.61763	1.54802	0.957233	-0.169673	-0.000260604	-0.133597	0.279751	-0.366718	0	0	-0.195266	-0.204765	-0.016503	0.73272	-0.219235	0	0	-0.463596	0.144148	0.180349	0.574721	-0.522793	-0.13386	1.15012	0.969988	0	0	0.245407	-0.554173	0.143638	1.24985	1.5708	0	0
9.29	-2.80419	1.23426	-1.31241	0.616041	1.54233	0.956685	-0.16329	-0.00560908	-0.135401	0.273293	-0.374429	0	0	-0.205126	-0.19774	-0.0178247	0.702394	-0.208556	0	0	-0.459635	0.144881	0.17659	0.578003	-0.528912	-0.125697	1.14779	0.973031	0	0	0.246002	-0.553368	0.144472	1.24908	1.5708	0	0
9.3	-2.80464	1.23897	-1.31137	0.614477	1.53655	0.956146	-0.156834	-0.0113733	-0.137374	0.266264	-0.38289	0	0	-0.215006	-0.189623	-0.0206467	0.668759	-0.196213	0	0	-0.455586	0.144804	0.173018	0.580998	-0.535789	-0.116852	1.14534	0.976258	0	0	0.247167	-0.552727	0.146061	1.24769	1.5708	0	0
9.31	-2.80398	1.24403	-1.31177	0.612993	1.53067	0.955624	-0.149842	-0.0178178	-0.141342	0.259173	-0.392127	0	0	-0.224607	-0.180294	-0.0242322	0.633971	-0.183433	0	0	-0.451712	0.143629	0.169688	0.583904	-0.543078	-0.107652	1.14295	0.97974	0	0	0.24863	-0.552372	0.147973	1.24609	1.5708	0	0
9.32	-2.79969	1.24897	-1.31616	0.611516	1.52456	0.955192	-0.142975	-0.0255727	-0.144935	0.251971	-0.401781	0	0	-0.234071	-0.168969	-0.0282112	0.600315	-0.171778	0	0	-0.448799	0.140992	0.166393	0.587358	-0.550845	-0.0980407	1.14035	0.983478	0	0	0.250783	-0.552119	0.150349	1.24417	1.5708	0	0
9.33	-2.81265	1.28959	-1.30409	0.609357	1.52022	0.95383	-0.0976912	-0.0368817	-0.142235	0.247002	-0.41615	0	0	-0.204387	-0.151926	-0.0246832	0.568468	-0.16292	0	0	-0.34241	0.0911889	0.0197246	1.22608	-0.615361	1.5708	0.628594	0.97478	0	0	0.0729709	-0.564686	-0.0596164	1.3126	1.5708	0	0
9.34	-2.77805	1.25732	-1.33711	0.608896	1.51189	0.954884	-0.133469	-0.043742	-0.150095	0.232601	-0.430067	0	0	-0.251531	-0.143502	-0.0374807	0.538227	-0.158541	0	0	-0.448317	0.130856	0.154471	0.599669	-0.564013	-0.0712695	1.13575	0.945105	0	0	0.250109	-0.552287	0.144276	1.24529	1.5708	0	0
9.35	-2.78305	1.29898	-1.33138	0.606908	1.50724	0.953617	-0.0880047	-0.0566586	-0.147011	0.227523	-0.439075	0	0	-0.217652	-0.126682	-0.0330491	0.509505	-0.160288	0	0	-0.341126	0.078499	0.0199642	1.22869	-0.631777	1.5708	0.638956	0.953263	0	0	0.0936515	-0.566929	-0.0375533	1.30066	1.5708	0	0
9.36	-2.76355	1.30199	-1.34863	0.605809	1.50046	0.953624	-0.0854958	-0.0672195	-0.149556	0.217751	-0.44606	0	0	-0.223555	-0.115315	-0.0362525	0.482547	-0.161727	0	0	-0.346631	0.0724617	0.00830454	1.23696	-0.62515	1.5708	0.636606	0.942339	0	0	0.0871833	-0.567667	-0.0512963	1.3073	1.5708	0	0
9.37	-2.7411	1.30179	-1.36825	0.604676	1.49325	0.953728	-0.0862998	-0.0783043	-0.15298	0.207978	-0.454703	0	0	-0.231369	-0.104541	-0.0364631	0.456823	-0.165476	0	0	-0.355287	0.0666604	-0.000125376	1.24535	-0.624133	1.5708	0.637267	0.933402	0	0	0.0878316	-0.568159	-0.0575936	1.31117	1.5708	0	0
9.38	-2.71741	1.30224	-1.38761	0.603381	1.48596	0.95373	-0.0870147	-0.0902128	-0.158538	0.197942	-0.4621	0	0	-0.236653	-0.0940589	-0.0327284	0.433563	-0.170677	0	0	-0.36254	0.0608092	-0.0086049	1.25271	-0.625179	1.5708	0.638707	0.926129	0	0	0.0904586	-0.569416	-0.0599082	1.31396	1.5708	0	0
9.39	-2.69886	1.30324	-1.40223	0.602427	1.47873	0.953717	-0.0868315	-0.100282	-0.161838	0.187945	-0.467083	0	0	-0.239041	-0.085496	-0.0281924	0.413801	-0.17668	0	0	-0.369077	0.0555259	-0.0157129	1.25938	-0.626799	1.5708	0.640022	0.9202	0	0	0.0943173	-0.571773	-0.0601323	1.31639	1.5708	0	0
9.4	-2.68224	1.30462	-1.41517	0.601378	1.47146	0.953624	-0.0861382	-0.110306	-0.165652	0.178489	-0.469633	0	0	-0.239293	-0.0765674	-0.0244911	0.397448	-0.182725	0	0	-0.374809	0.0512281	-0.022262	1.26609	-0.628923	1.5708	0.641565	0.91538	0	0	0.0985795	-0.573683	-0.0596337	1.31817	1.5708	0	0
9.41	-2.666	1.30627	-1.42782	0.600131	1.46421	0.953469	-0.0854923	-0.120859	-0.171315	0.169489	-0.469707	0	0	-0.237957	-0.0668789	-0.0228634	0.384194	-0.188369	0	0	-0.379678	0.0477745	-0.0286216	1.27279	-0.631405	1.5708	0.64329	0.911524	0	0	0.102787	-0.574794	-0.0589105	1.31946	1.5708	0	0
9.42	-2.64971	1.30788	-1.44077	0.598811	1.45702	0.95333	-0.08516	-0.131748	-0.177911	0.161108	-0.467568	0	0	-0.235585	-0.056719	-0.0238599	0.373986	-0.193758	0	0	-0.384112	0.0446547	-0.0345806	1.2793	-0.633876	1.5708	0.644713	0.908637	0	0	0.10676	-0.575635	-0.0578921	1.32089	1.5708	0	0
9.43	-2.63698	1.30957	-1.45169	0.597864	1.45008	0.953305	-0.0836288	-0.140854	-0.1817	0.15389	-0.464007	0	0	-0.231794	-0.0478578	-0.0279465	0.366854	-0.199113	0	0	-0.388304	0.0416825	-0.0387946	1.28521	-0.635949	1.5708	0.645744	0.906577	0	0	0.110569	-0.576672	-0.0572447	1.32245	1.5708	0	0
9.44	-2.62719	1.31128	-1.46109	0.597054	1.44335	0.953348	-0.0810451	-0.148904	-0.1841	0.147908	-0.459572	0	0	-0.226934	-0.039719	-0.0325028	0.361877	-0.20415	0	0	-0.392123	0.0392511	-0.0415208	1.29099	-0.638089	1.5708	0.647337	0.905381	0	0	0.11371	-0.577287	-0.0573849	1.32406	1.5708	0	0
9.45	-2.6218	1.31333	-1.46738	0.596243	1.43681	0.953405	-0.0768198	-0.155873	-0.186204	0.144042	-0.454361	0	0	-0.220634	-0.0323841	-0.0345959	0.358808	-0.209241	0	0	-0.394907	0.0380984	-0.0428734	1.29655	-0.640089	1.5708	0.649145	0.90504	0	0	0.115647	-0.576983	-0.0585751	1.32589	1.5708	0	0
9.46	-2.62471	1.31567	-1.46737	0.595639	1.43059	0.953497	-0.0702236	-0.160332	-0.186593	0.144394	-0.448842	0	0	-0.212909	-0.0269719	-0.0348503	0.357548	-0.214188	0	0	-0.396659	0.0386315	-0.0420307	1.30159	-0.641486	1.5708	0.650483	0.905453	0	0	0.116441	-0.575902	-0.0610074	1.32806	1.5708	0	0
9.47	-2.63775	1.31771	-1.45957	0.595382	1.4247	0.953697	-0.060885	-0.161443	-0.185412	0.152055	-0.444068	0	0	-0.204481	-0.0239371	-0.0345249	0.358076	-0.218294	0	0	-0.398125	0.040984	-0.0384925	1.30613	-0.642046	1.5708	0.650964	0.906467	0	0	0.116255	-0.57437	-0.0644992	1.33083	1.5708	0	0
9.48	-2.65984	1.31924	-1.44453	0.595511	1.4191	0.954079	-0.0489402	-0.159285	-0.183924	0.168309	-0.4394	0	0	-0.195854	-0.02312	-0.0337503	0.360035	-0.221714	0	0	-0.399987	0.0442335	-0.0323003	1.30972	-0.643008	1.5708	0.651624	0.907869	0	0	0.115568	-0.572848	-0.0685275	1.33502	1.5708	0	0
9.49	-2.6885	1.31969	-1.42452	0.59591	1.41371	0.954635	-0.03561	-0.154559	-0.181905	0.192626	-0.433215	0	0	-0.188244	-0.0239085	-0.0335895	0.362299	-0.224649	0	0	-0.40258	0.048644	-0.0240673	1.31326	-0.643609	1.5708	0.651699	0.909737	0	0	0.114703	-0.570931	-0.0729285	1.33963	1.5708	0	0
9.5	-2.72047	1.31902	-1.40164	0.59623	1.40844	0.955258	-0.0224883	-0.148793	-0.18102	0.223372	-0.424688	0	0	-0.182173	-0.0253594	-0.0341994	0.363828	-0.227213	0	0	-0.405756	0.0541569	-0.0149399	1.31714	-0.644535	1.5708	0.65185	0.912366	0	0	0.113121	-0.56843	-0.0776737	1.34511	1.5708	0	0
9.51	-2.75714	1.31738	-1.37444	0.5968	1.40339	0.955987	-0.0103787	-0.140713	-0.178272	0.258008	-0.414094	0	0	-0.176962	-0.0289702	-0.0359056	0.365	-0.229837	0	0	-0.409538	0.060548	-0.00483486	1.32077	-0.64552	1.5708	0.652104	0.915589	0	0	0.111389	-0.566176	-0.0826551	1.35108	1.5708	0	0
9.52	-2.79117	1.31597	-1.3488	0.597105	1.39846	0.956587	0.00141427	-0.133742	-0.177165	0.297203	-0.400181	0	0	-0.171333	-0.0322435	-0.0376381	0.36665	-0.232431	0	0	-0.411741	0.06696	0.00386216	1.3235	-0.645666	1.5708	0.651242	0.920218	0	0	0.108864	-0.563419	-0.0882089	1.35715	1.5708	0	0
9.53	-2.82482	1.31334	-1.32335	0.597602	1.39371	0.957248	0.0107642	-0.125641	-0.174735	0.336967	-0.39012	0	0	-0.166692	-0.0366028	-0.040418	0.36849	-0.234677	0	0	-0.414324	0.0732603	0.0120614	1.32533	-0.643899	1.5708	0.648087	0.92422	0	0	0.106047	-0.562042	-0.0931068	1.36356	1.5708	0	0
